<?xml version="1.0" encoding="utf-8"?>
<svg xmlns="http://www.w3.org/2000/svg" style="enable-background:new 0 0 420 189;" version="1.1" viewBox="0 0 420 189" x="0px" y="0px">
<style type="text/css">
	.st0{fill:#E3F4F3;}
	.st1{fill:#EAB288;}
	.st2{fill:#F7BF5C;}
	.st3{fill:#33918B;}
	.st4{fill:#215B77;}
	.st5{fill:#E08546;}
	.st6{fill:none;}
	.st7{fill:#FA3369;}
	.st8{fill:#FFFFFF;}
	.st9{fill:#EF8B63;}
	.st10{opacity:0.15;}
	.st11{fill:none;stroke:#272B36;stroke-width:0.4;stroke-miterlimit:10;}
	.st12{fill:none;stroke:#272B36;stroke-width:0.4717;stroke-miterlimit:10;}
	.st13{fill:#33918B;stroke:#272B36;stroke-width:0.4717;stroke-miterlimit:10;}
	.st14{fill:none;stroke:#272B36;stroke-width:0.425;stroke-miterlimit:10;}
	.st15{fill:#F7BF5C;stroke:#272B36;stroke-width:0.4717;stroke-miterlimit:10;}
</style>
<g id="Capa_2">
	<rect class="st0" height="189" width="420" y="0"/>
</g>
<g id="Capa_1">
	<path class="st1" d="M148.44,148.78c-0.12,0.17-0.21,0.35-0.31,0.53c-0.31,0.61-0.54,1.26-0.74,1.92&#xD;&#xA;		c-0.22,0.79-0.39,1.62-0.54,2.43c-0.07,0.41-0.14,0.83-0.18,1.24c-2.03,0.79-4.35,0.84-6.39,0.07c-1.07-0.4-2.06-1.01-3.15-1.39&#xD;&#xA;		c-2.42-0.83-5.09-0.42-7.61-0.92c-0.61-0.12-1.26-0.33-1.67-0.81c-0.41-0.48-0.44-1.33,0.09-1.69c0.21-0.14,0.48-0.19,0.74-0.22&#xD;&#xA;		c1.5-0.22,3.01-0.44,4.5-0.66c-2.65-0.92-5.59-2.49-6.65-4.32c-0.14-0.25-0.27-0.52-0.26-0.81c0.04-0.65,0.8-1.05,1.45-0.97&#xD;&#xA;		c0.64,0.07,1.19,0.48,1.73,0.84c1.64,1.07,3.49,1.83,5.41,2.19c-0.72-1.85-0.14-3.62,0.55-4.49c0.8-0.99,1.98-1.58,3.18-1.98&#xD;&#xA;		c0.73-0.24,1.53-0.41,2.23-0.11c0.7,0.31,1.12,1.27,0.64,1.85c-0.46,0.55-1.33,0.41-2.03,0.55c-1.42,0.29-2.23,2.05-1.69,3.38&#xD;&#xA;		c0.55,1.33,2.21,2.03,3.58,1.65c0.71-0.19,1.42-0.73,1.45-1.46c0.04-0.44-0.18-0.84-0.35-1.24c-0.31-0.71-0.51-1.46-0.6-2.23&#xD;&#xA;		c-0.07-0.65,0.04-1.49,0.66-1.7c0.84-0.28,1.43,0.79,1.69,1.64C144.97,144.65,146.27,147.29,148.44,148.78z"/>
	<path class="st1" d="M283.68,149.27c1.51,0.22,3,0.44,4.5,0.66c0.26,0.04,0.53,0.08,0.74,0.22c0.53,0.35,0.5,1.2,0.09,1.69&#xD;&#xA;		c-0.41,0.48-1.06,0.7-1.69,0.81c-2.51,0.5-5.18,0.09-7.59,0.92c-1.08,0.38-2.08,0.99-3.15,1.39c-2.04,0.77-4.36,0.72-6.38-0.07&#xD;&#xA;		h-0.01c-0.02-0.41-0.09-0.83-0.18-1.24c-0.15-0.81-0.32-1.63-0.55-2.42c-0.19-0.66-0.42-1.31-0.74-1.93&#xD;&#xA;		c-0.09-0.18-0.19-0.37-0.29-0.53c2.16-1.5,3.46-4.13,4.25-6.7c0.25-0.85,0.85-1.92,1.69-1.64c0.63,0.21,0.73,1.05,0.65,1.7&#xD;&#xA;		c-0.09,0.77-0.29,1.52-0.6,2.23c-0.17,0.4-0.38,0.8-0.35,1.24c0.05,0.73,0.74,1.27,1.45,1.46c1.39,0.38,3.04-0.32,3.58-1.65&#xD;&#xA;		c0.55-1.33-0.27-3.09-1.67-3.38c-0.71-0.14-1.57,0-2.03-0.55c-0.5-0.58-0.06-1.54,0.64-1.85c0.7-0.31,1.5-0.13,2.22,0.11&#xD;&#xA;		c1.2,0.4,2.39,0.99,3.18,1.98c0.7,0.87,1.29,2.65,0.55,4.5c1.92-0.38,3.79-1.13,5.41-2.21c0.55-0.35,1.1-0.77,1.75-0.84&#xD;&#xA;		c0.65-0.08,1.4,0.32,1.44,0.97c0.02,0.29-0.11,0.57-0.25,0.81C289.27,146.78,286.33,148.35,283.68,149.27z"/>
	<path class="st1" d="M215.97,104.4c-0.19,0.39-0.47,0.77-0.86,0.94c-0.19,0.08-0.4,0.11-0.6,0.08c-1.3,1.77-1.24,4.53,0.34,6.11&#xD;&#xA;		c-1.37,2.62-1.36,5.86-0.14,8.55c-1.6,0.96-3.33,1.75-5.17,1.97c-2.04,0.27-4.28-0.26-5.71-1.75c0-0.91-0.01-1.82,0-2.74&#xD;&#xA;		c-0.01-1-0.01-2-0.01-3c-1.12-0.31-2.18-0.83-3.09-1.56c-2.59-2.09-3.73-5.6-3.64-8.93c0.07-3.05,1.04-5.99,2.18-8.82&#xD;&#xA;		c0.32,0.08,0.67,0.08,0.99,0.04c1.5-0.27,2.9-1.04,3.93-2.17c1.06,6.51,7.67,8.79,11.95,8.46&#xD;&#xA;		C216.43,102.5,216.38,103.54,215.97,104.4z"/>
	<path class="st2" d="M155.12,149.49c-2.21,2.46-3.35,5.84-3.13,9.12c0.52,0.19,1.04,0.38,1.57,0.55c-0.13,0.2-0.27,0.38-0.45,0.53&#xD;&#xA;		c-0.54,0.47-1.44,0.63-1.97,0.14c-0.18-0.17-0.29-0.38-0.46-0.54c-0.62-0.63-1.65-0.46-2.46-0.79c-0.84-0.34-1.37-1.23-1.53-2.12&#xD;&#xA;		c-0.08-0.48-0.07-0.98-0.01-1.47c0.04-0.41,0.11-0.83,0.18-1.24c0.15-0.81,0.32-1.64,0.54-2.43c0.2-0.66,0.44-1.31,0.74-1.92&#xD;&#xA;		c0.09-0.18,0.19-0.37,0.31-0.53c0.68-1.13,1.67-2.1,2.91-2.56c0.32-0.12,0.71-0.19,0.98,0.02c0.2,0.15,0.28,0.42,0.44,0.64&#xD;&#xA;		c0.51,0.64,1.54,0.38,2.3,0.71c0.34,0.15,0.62,0.45,0.83,0.77c0.32,0.48,0.48,1.07,0.48,1.64&#xD;&#xA;		C155.95,149.84,155.53,149.66,155.12,149.49z"/>
	<path class="st2" d="M270.18,156.37c-0.15,0.9-0.68,1.78-1.52,2.12c-0.81,0.33-1.85,0.17-2.46,0.79c-0.17,0.17-0.28,0.38-0.46,0.54&#xD;&#xA;		c-0.53,0.48-1.43,0.33-1.97-0.14c-0.18-0.15-0.32-0.33-0.45-0.53c0.53-0.19,1.05-0.38,1.57-0.55c0.21-3.29-0.94-6.66-3.13-9.13&#xD;&#xA;		c-0.41,0.19-0.84,0.37-1.27,0.52c0.01-0.58,0.18-1.14,0.48-1.64c0.21-0.32,0.48-0.61,0.84-0.77c0.74-0.33,1.79-0.07,2.29-0.71&#xD;&#xA;		c0.17-0.21,0.24-0.48,0.45-0.64c0.27-0.21,0.66-0.14,0.98-0.02c1.24,0.46,2.23,1.43,2.91,2.56c0.11,0.17,0.2,0.35,0.29,0.53&#xD;&#xA;		c0.32,0.62,0.55,1.27,0.74,1.93c0.24,0.79,0.4,1.6,0.55,2.42c0.08,0.41,0.15,0.83,0.18,1.24h0.01&#xD;&#xA;		C270.26,155.39,270.27,155.89,270.18,156.37z"/>
	<path class="st3" d="M249.16,152.5c-0.97,0.07-1.91,0.11-2.81,0.09c-1.92-0.02-3.89-0.22-5.59-1.12c-1.36-0.71-2.45-1.82-3.42-3&#xD;&#xA;		c-1.44-1.76-2.62-3.73-3.53-5.81c-1.44-3.34-4.46-12.39-7.11-17.51c-3.4,1.16-7.44,0.33-10.02-2.18c-0.85-0.83-1.51-1.82-1.98-2.89&#xD;&#xA;		c-1.21-2.69-1.23-5.93,0.14-8.55c-1.58-1.58-1.64-4.34-0.34-6.11c0.2,0.02,0.41,0,0.6-0.08c0.39-0.18,0.67-0.55,0.86-0.94&#xD;&#xA;		c0.41-0.86,0.46-1.9,0.17-2.81c-4.28,0.33-10.88-1.95-11.95-8.46c-1.03,1.13-2.43,1.9-3.93,2.17c-0.32,0.05-0.67,0.05-0.99-0.04&#xD;&#xA;		c-0.35-0.09-0.65-0.29-0.73-0.64c-0.07-0.26,0.01-0.54,0.09-0.8c1.7-4.95,7.11-8.34,12.3-7.78c0.17,0.01,0.34,0.04,0.51,0.06&#xD;&#xA;		c2.52,0.39,4.83,1.71,6.57,3.55c1.97,2.09,3.23,4.84,3.29,7.7c1.03-0.41,2.33,0.08,2.83,1.08c0.5,0.99,0.09,2.33-0.86,2.9&#xD;&#xA;		c3.82,1.18,7.06,4.14,8.57,7.85c1.5,3.7,1.25,8.09-0.67,11.6c3.9,1.73,7.55,4.06,10.78,6.85c2.54,2.19,4.84,4.71,6.42,7.65&#xD;&#xA;		C251.18,140.53,251.33,147,249.16,152.5z"/>
	<path class="st4" d="M220,87.39c-0.4,0.94-1.12,1.73-1.99,2.28c-1.73-1.84-4.04-3.16-6.57-3.55c-0.17-0.02-0.34-0.05-0.51-0.06&#xD;&#xA;		c-0.19-0.65-0.21-1.33-0.07-1.98c0.33-1.49,1.51-2.74,2.95-3.24c1.79-0.64,3.93-0.12,5.24,1.26&#xD;&#xA;		C220.34,83.47,220.74,85.64,220,87.39z"/>
	<path class="st3" d="M264.99,170.12c-0.31,3.92-2.53,7.51-5.44,10.15c-2.92,2.64-6.49,4.44-10.11,5.98&#xD;&#xA;		c-2.23,0.95-5.37,1.85-8.99,2.74h-9.02c-0.14-0.8-0.53-1.57-0.95-2.28c-1.3-2.15-3.06-4.08-5.29-5.26&#xD;&#xA;		c-1.33-0.72-2.84-1.14-4.36-1.19c-1.3,0.88-2.59,1.84-3.9,2.84c-2.74,2.11-5.65,3.98-8.49,5.44c-2.86-1.45-5.77-3.33-8.52-5.44&#xD;&#xA;		c-1.31-1-2.6-1.96-3.89-2.84c-1.52,0.05-3.04,0.47-4.37,1.19c-2.22,1.18-3.99,3.11-5.29,5.26c-0.42,0.72-0.81,1.48-0.94,2.28h-9.02&#xD;&#xA;		c-3.62-0.89-6.76-1.79-8.99-2.74c-3.62-1.54-7.19-3.34-10.1-5.98c-2.92-2.64-5.15-6.23-5.45-10.15c-0.1-1.09-0.03-2.21,0.36-3.23&#xD;&#xA;		c1.08-2.82,4.26-4.18,7.22-4.73c0.79-0.16,1.57-0.26,2.36-0.34h0.01c4.43,1.27,8.96,2.27,12.93,2.59c1.54,0.12,3.13,0.15,4.63-0.26&#xD;&#xA;		c0.06-0.01,0.11-0.03,0.16-0.05c1.25,0.37,2.49,0.76,3.72,1.16c2.33,0.77,4.66,1.58,6.96,2.43c0.09,0.03,0.19,0.07,0.28,0.1&#xD;&#xA;		c2.16,2.7,7.26,6.8,18.67,7.65c8.23,0.62,13.75-3.34,17.27-7.68c0.06-0.02,0.13-0.05,0.19-0.07c0.88-0.33,1.76-0.65,2.64-0.96&#xD;&#xA;		c1.44-0.5,2.88-1,4.33-1.47c1.23-0.4,2.47-0.79,3.71-1.16c0.05,0.02,0.1,0.04,0.16,0.05c0.09,0.02,0.19,0.05,0.28,0.07&#xD;&#xA;		c1.42,0.34,2.9,0.3,4.37,0.19c3.96-0.32,8.5-1.32,12.92-2.59c0.79,0.08,1.57,0.18,2.36,0.34c2.96,0.55,6.16,1.91,7.23,4.73&#xD;&#xA;		C265.03,167.92,265.09,169.04,264.99,170.12z"/>
	<path class="st4" d="M264.88,158.6c-0.52,0.18-1.04,0.37-1.57,0.55c-2.58,0.92-5.4,1.85-8.27,2.67c-4.42,1.27-8.96,2.28-12.92,2.59&#xD;&#xA;		c-1.46,0.11-2.95,0.15-4.36-0.19c-0.09-0.02-0.19-0.05-0.28-0.07c-0.06-0.01-0.11-0.04-0.17-0.05c-1.3-0.38-2.49-1.06-3.58-1.85&#xD;&#xA;		c-0.97-0.68-1.88-1.45-2.71-2.28c-2.63-2.57-4.66-5.72-6.18-9.04c-0.11-0.24-0.22-0.48-0.32-0.73c0.04,1.8,0.09,3.61,0.18,5.4&#xD;&#xA;		c0.17,3.51,0.47,7.13,1.44,10.5c0.13,0.5,0.29,0.99,0.46,1.47c-0.05,0.07-0.09,0.13-0.14,0.19c-3.53,4.34-9.04,8.3-17.28,7.68&#xD;&#xA;		c-11.4-0.85-16.51-4.94-18.67-7.64c-0.07-0.09-0.15-0.19-0.21-0.28c1.32-3.75,1.69-7.89,1.89-11.91c0.08-1.79,0.14-3.6,0.18-5.4&#xD;&#xA;		c-0.11,0.25-0.21,0.5-0.32,0.73c-2,4.39-4.92,8.49-8.9,11.32c-1.1,0.79-2.28,1.47-3.58,1.85c-0.06,0.01-0.11,0.04-0.17,0.05&#xD;&#xA;		c-1.5,0.41-3.09,0.38-4.63,0.26c-3.96-0.32-8.49-1.32-12.92-2.59h-0.01c-2.85-0.81-5.67-1.73-8.25-2.67&#xD;&#xA;		c-0.53-0.18-1.05-0.37-1.57-0.55c-0.22-3.28,0.92-6.65,3.13-9.12c0.41,0.18,0.84,0.35,1.26,0.51c4.43,1.71,9.76,2.65,14.14,2.61&#xD;&#xA;		c1.92-0.02,3.89-0.22,5.59-1.12c1.34-0.71,2.44-1.82,3.41-3c1.44-1.76,5.97-10.83,7.12-15.28c1.05-4.06,2.65-8.11,5.59-11.1&#xD;&#xA;		c2.23-2.28,5.6-4.82,11.6-4.53c-0.01,0.92,0,1.83,0,2.74c1.43,1.49,3.67,2.02,5.71,1.75c1.84-0.22,3.56-1.01,5.17-1.97&#xD;&#xA;		c0.47,1.07,1.13,2.06,1.98,2.89c2.58,2.51,6.63,3.34,10.02,2.18c2.65,5.12,5.67,14.17,7.11,17.51c0.91,2.09,2.09,4.06,3.53,5.81&#xD;&#xA;		c0.97,1.18,2.06,2.29,3.42,3c1.7,0.9,3.67,1.1,5.59,1.12c0.9,0.01,1.84-0.02,2.81-0.09c3.71-0.28,7.79-1.16,11.32-2.51&#xD;&#xA;		c0.44-0.15,0.86-0.33,1.27-0.52C263.94,151.94,265.09,155.31,264.88,158.6z"/>
	<circle class="st5" cx="206.1" cy="105.43" r="1.12"/>
	<path class="st1" d="M209.35,188.99h-23.92c0.13-0.8,0.52-1.56,0.94-2.28c1.3-2.15,3.07-4.08,5.29-5.26&#xD;&#xA;		c1.33-0.72,2.85-1.14,4.37-1.19c1.29,0.88,2.58,1.84,3.89,2.84c2.75,2.11,5.66,3.99,8.52,5.44&#xD;&#xA;		C208.74,188.71,209.04,188.86,209.35,188.99z"/>
	<path class="st6" d="M170.15,172.45c8.4-1.46,16.98,1.7,25.88,7.82"/>
	<path class="st1" d="M231.43,188.99h-22.08c-0.31-0.14-0.61-0.29-0.91-0.45c2.84-1.46,5.75-3.33,8.49-5.44&#xD;&#xA;		c1.31-1,2.6-1.96,3.9-2.84c1.52,0.05,3.03,0.47,4.36,1.19c2.23,1.18,3.99,3.11,5.29,5.26C230.91,187.43,231.29,188.2,231.43,188.99&#xD;&#xA;		z"/>
	<path class="st6" d="M220.84,180.26c8.92-6.12,17.49-9.28,25.88-7.82"/>
	<path class="st6" d="M136.52,146.44c-0.55-0.05-1.1-0.12-1.64-0.24"/>
	<path class="st6" d="M136.24,148.84c-1.01,0.14-2.03,0.29-3.04,0.44"/>
	<path class="st6" d="M192.32,143.16c0.06,2.35,0.07,4.69,0.04,7.04"/>
	<path class="st6" d="M155.39,149.18c-0.09,0.11-0.19,0.2-0.27,0.31"/>
	<path class="st6" d="M152.01,158.9c-0.01-0.09-0.01-0.2-0.02-0.29"/>
	<path class="st6" d="M281.98,146.22c-0.54,0.11-1.08,0.18-1.63,0.22"/>
	<path class="st6" d="M280.62,148.84c1.01,0.14,2.03,0.29,3.04,0.44h0.01"/>
	<path class="st6" d="M269.47,151.24c2.05-0.78,4.32-1,6.47-0.65"/>
	<path class="st6" d="M224.52,150.2c-0.04-2.35-0.02-4.69,0.04-7.04"/>
	<path class="st6" d="M261.76,149.47c-0.09-0.09-0.18-0.2-0.27-0.29"/>
	<path class="st6" d="M264.88,158.6c-0.01,0.11-0.01,0.2-0.02,0.29"/>
	<path class="st6" d="M203.82,114.58c1.12,0.31,2.3,0.4,3.44,0.26c1.14-0.13,2.26-0.5,3.29-1.05"/>
	<path class="st4" d="M237.31,164.11c-1.24,0.37-2.48,0.75-3.7,1.16c-1.45,0.47-2.89,0.97-4.33,1.47c-0.88,0.31-1.77,0.63-2.64,0.96&#xD;&#xA;		c-0.01-0.04-0.04-0.08-0.05-0.12c-0.17-0.48-0.33-0.98-0.46-1.47c-0.97-3.36-1.27-6.98-1.44-10.5c-0.08-1.79-0.14-3.6-0.18-5.4&#xD;&#xA;		c0.09,0.25,0.21,0.5,0.32,0.73c1.52,3.33,3.55,6.47,6.18,9.04c0.84,0.83,1.75,1.59,2.71,2.28&#xD;&#xA;		C234.82,163.05,236.01,163.73,237.31,164.11z"/>
	<path class="st6" d="M218.71,100.92c-0.65,0.37-1.54,0.6-2.58,0.67"/>
	<path class="st6" d="M204.18,93.14c-0.09-0.58-0.14-1.19-0.14-1.84"/>
	<path class="st6" d="M214.5,105.43c-0.22-0.04-0.45-0.14-0.58-0.33"/>
	<path class="st6" d="M228.17,124.52c-0.47,0.26-0.96,0.47-1.46,0.64"/>
	<path class="st6" d="M140.54,150.59c2.29-0.38,4.68-0.09,6.82,0.78"/>
	<path class="st7" d="M316.96,81.87c2.94,2.94,2.94,7.7,0.01,10.64l-0.33,0.33l-10.65,10.64l-10.96-10.96&#xD;&#xA;		c-2.94-2.94-2.94-7.71,0-10.65l0,0c2.94-2.94,7.7-2.93,10.64,0l0.32,0.32l0.33-0.33C309.25,78.92,314.01,78.93,316.96,81.87&#xD;&#xA;		L316.96,81.87z"/>
	<path class="st7" d="M323.32,62.62c1.47,1.47,1.47,3.85,0,5.32l-0.16,0.16l-5.32,5.32l-5.48-5.48c-1.47-1.47-1.47-3.85,0-5.32l0,0&#xD;&#xA;		c1.47-1.47,3.85-1.47,5.32,0l0.16,0.16l0.16-0.16C319.47,61.15,321.85,61.15,323.32,62.62L323.32,62.62z"/>
	<path class="st7" d="M302.1,56.66c0.95,0.95,0.95,2.49,0,3.44l-0.11,0.11l-3.44,3.44l-3.54-3.54c-0.95-0.95-0.95-2.49,0-3.44v0&#xD;&#xA;		c0.95-0.95,2.49-0.95,3.44,0l0.1,0.1l0.11-0.11C299.61,55.71,301.15,55.71,302.1,56.66L302.1,56.66z"/>
	<path class="st8" d="M307.3,71.58c-1.02,0.53-1.85,2.08-2.24,4.11c-0.4-2.03-1.23-3.58-2.24-4.11c1.02-0.54,1.85-2.08,2.24-4.11&#xD;&#xA;		C305.45,69.5,306.28,71.05,307.3,71.58z"/>
	<path class="st8" d="M152.32,97.64c-1.77,0.93-3.21,3.62-3.9,7.15c-0.69-3.53-2.13-6.22-3.9-7.15c1.77-0.93,3.21-3.62,3.9-7.14&#xD;&#xA;		C149.1,94.02,150.54,96.71,152.32,97.64z"/>
	<path class="st8" d="M282.9,91.64c-2.33,1.22-4.23,4.77-5.15,9.42c-0.91-4.65-2.81-8.21-5.15-9.42c2.33-1.23,4.23-4.78,5.15-9.42&#xD;&#xA;		C278.66,86.86,280.56,90.42,282.9,91.64z"/>
	<path class="st8" d="M201.05,27.17c-1.59,0.83-2.89,3.26-3.51,6.44c-0.62-3.18-1.92-5.6-3.51-6.44c1.59-0.84,2.89-3.26,3.51-6.44&#xD;&#xA;		C198.16,23.91,199.46,26.33,201.05,27.17z"/>
	<path class="st8" d="M70.28,125.96c-1.77,0.92-3.21,3.62-3.9,7.14c-0.69-3.53-2.13-6.22-3.9-7.14c1.77-0.93,3.21-3.62,3.9-7.14&#xD;&#xA;		C67.07,122.34,68.51,125.03,70.28,125.96z"/>
	<path class="st8" d="M95.11,149.4c-0.89,0.46-1.61,1.81-1.95,3.57c-0.35-1.76-1.07-3.11-1.95-3.57c0.88-0.47,1.6-1.81,1.95-3.57&#xD;&#xA;		C93.51,147.59,94.22,148.93,95.11,149.4z"/>
	<path class="st8" d="M109.79,59.52c-0.89,0.46-1.61,1.81-1.95,3.57c-0.35-1.76-1.07-3.11-1.95-3.57c0.88-0.47,1.6-1.81,1.95-3.57&#xD;&#xA;		C108.17,57.71,108.9,59.05,109.79,59.52z"/>
	<path class="st8" d="M229.49,51.69c-0.8,0.42-1.45,1.63-1.76,3.22c-0.31-1.59-0.96-2.8-1.76-3.22c0.8-0.42,1.45-1.63,1.76-3.22&#xD;&#xA;		C228.04,50.06,228.69,51.27,229.49,51.69z"/>
	<path class="st8" d="M325.99,143.61c-1.05,0.55-1.91,2.15-2.32,4.25c-0.41-2.1-1.27-3.7-2.32-4.25c1.05-0.55,1.91-2.16,2.32-4.25&#xD;&#xA;		C324.08,141.45,324.93,143.06,325.99,143.61z"/>
	<path class="st8" d="M381.14,146.96c-2.09,1.09-3.8,4.28-4.61,8.45c-0.82-4.17-2.52-7.35-4.61-8.45c2.09-1.1,3.8-4.28,4.61-8.45&#xD;&#xA;		C377.35,142.67,379.05,145.86,381.14,146.96z"/>
	<path class="st3" d="M136.38,79.43c-0.89,0-1.73,0.24-2.44,0.68v-2.37h-19.14v12.6c0,2.87,2.33,5.2,5.19,5.2h8.76&#xD;&#xA;		c2.87,0,5.19-2.33,5.19-5.2v-2.13c0.71,0.43,1.55,0.68,2.44,0.68c2.61,0,4.73-2.11,4.73-4.73&#xD;&#xA;		C141.1,81.55,138.98,79.43,136.38,79.43z M124.36,90.49h-5.69V84.8l0.7-2.03h4.29l0.7,2.03V90.49z M136.38,87.43&#xD;&#xA;		c-0.97,0-1.84-0.42-2.44-1.09v-4.36c0.6-0.67,1.47-1.09,2.44-1.09c1.8,0,3.27,1.46,3.27,3.27S138.17,87.43,136.38,87.43z"/>
	<polygon class="st4" points="124.36,84.8 124.36,90.49 118.67,90.49 118.67,84.8 119.38,82.78 123.66,82.78"/>
	<path class="st2" d="M133.93,60.18c-0.13,2.39-1.64,4.48-3.35,6.16c-1.69,1.67-3.65,3.1-5.08,5.02c-0.57,0.77-1.06,1.64-1.13,2.6&#xD;&#xA;		c-0.03,0.42,0.04,0.86,0.21,1.25c-2.09-1.1-3.48-3.58-3.06-5.94c0.3-1.72,1.4-3.22,2.68-4.41c1.28-1.2,2.76-2.16,4.11-3.29&#xD;&#xA;		c1.38-1.16,2.69-2.68,2.68-4.48c-0.01-1.24-0.66-2.38-1.45-3.33c-0.59-0.72-1.27-1.36-2.02-1.91c0.58,0,1.15,0.1,1.68,0.32&#xD;&#xA;		c1.39,0.57,2.42,1.77,3.21,3.05C133.34,56.73,134.02,58.43,133.93,60.18z"/>
	<path class="st3" d="M77.85,145.29c0,1.13-0.46,2.15-1.19,2.88c-0.73,0.75-1.74,1.19-2.88,1.19H54.91c1.13,0,2.14-0.44,2.87-1.19&#xD;&#xA;		c0.73-0.73,1.19-1.75,1.19-2.88c0-2.24-1.81-4.05-4.06-4.05h18.86C76.04,141.24,77.85,143.05,77.85,145.29z"/>
	<path class="st9" d="M86.89,153.43c0,1.12-0.46,2.14-1.2,2.87c-0.73,0.73-1.74,1.19-2.87,1.19H63.95c1.13,0,2.15-0.46,2.88-1.19&#xD;&#xA;		c0.73-0.73,1.19-1.75,1.19-2.87c0-2.25-1.82-4.07-4.07-4.07h18.87C85.07,149.36,86.89,151.18,86.89,153.43z"/>
	<path class="st3" d="M60.98,165.62H42.12c-2.24,0-4.07-1.83-4.07-4.07c0-1.12,0.46-2.13,1.19-2.88c0.74-0.73,1.76-1.19,2.88-1.19&#xD;&#xA;		h18.87c-1.12,0-2.13,0.46-2.88,1.19c-0.73,0.74-1.19,1.76-1.19,2.88C56.92,163.79,58.74,165.62,60.98,165.62z"/>
	<path class="st8" d="M58.98,145.29c0,1.12-0.46,2.15-1.19,2.88c-0.73,0.74-1.75,1.19-2.88,1.19H40.82v-8.13h14.09&#xD;&#xA;		C57.16,141.23,58.98,143.05,58.98,145.29z"/>
	<path class="st8" d="M68.02,153.43c0,1.12-0.46,2.14-1.19,2.87c-0.73,0.73-1.75,1.19-2.88,1.19H45.33v-8.13h18.62&#xD;&#xA;		C66.2,149.36,68.02,151.18,68.02,153.43z"/>
	<path class="st8" d="M78.17,157.49v8.14H60.98c-2.24,0-4.07-1.83-4.07-4.07c0-1.12,0.46-2.14,1.19-2.88&#xD;&#xA;		c0.74-0.73,1.76-1.19,2.88-1.19H78.17z"/>
	
		<rect class="st4" height="3.15" transform="matrix(0.9322 -0.3618 0.3618 0.9322 -32.0635 131.8234)" width="1.49" x="335.21" y="149.95"/>
	
		<rect class="st4" height="3.15" transform="matrix(0.9322 -0.3618 0.3618 0.9322 -29.7145 135.6092)" width="10.13" x="342.17" y="145.57"/>
	
		<rect class="st4" height="3.15" transform="matrix(0.9322 -0.3618 0.3618 0.9322 -27.3655 139.395)" width="1.49" x="357.77" y="141.19"/>
	<g>
		
			<rect class="st2" height="11.69" transform="matrix(0.9322 -0.3618 0.3618 0.9322 -28.4264 137.6851)" width="3.15" x="351.85" y="138.9"/>
		
			<rect class="st2" height="9.07" transform="matrix(0.9322 -0.3618 0.3618 0.9322 -27.8167 138.6702)" width="3.15" x="354.79" y="139.08"/>
		
			<rect class="st2" height="11.69" transform="matrix(0.9322 -0.3618 0.3618 0.9322 -31.0025 133.5333)" width="3.15" x="339.48" y="143.7"/>
		
			<rect class="st2" height="9.07" transform="matrix(0.9322 -0.3618 0.3618 0.9322 -31.6144 132.5495)" width="3.15" x="336.54" y="146.16"/>
	</g>
	
		<rect class="st4" height="1.49" transform="matrix(0.2254 -0.9743 0.9743 0.2254 113.9992 458.2958)" width="3.15" x="343.64" y="156.71"/>
	
		<rect class="st4" height="10.13" transform="matrix(0.2254 -0.9743 0.9743 0.2254 120.4753 471.8972)" width="3.15" x="355.43" y="155.12"/>
	
		<rect class="st4" height="1.49" transform="matrix(0.2254 -0.9743 0.9743 0.2254 126.9514 485.4987)" width="3.15" x="367.22" y="162.17"/>
	<g>
		
			<rect class="st2" height="3.15" transform="matrix(0.2254 -0.9743 0.9743 0.2254 124.0264 479.3553)" width="11.69" x="357.63" y="160.11"/>
		
			<rect class="st2" height="3.15" transform="matrix(0.2254 -0.9743 0.9743 0.2254 125.7065 482.894)" width="9.07" x="362" y="160.82"/>
		
			<rect class="st2" height="3.15" transform="matrix(0.2254 -0.9743 0.9743 0.2254 116.9242 464.4391)" width="11.69" x="344.7" y="157.11"/>
		
			<rect class="st2" height="3.15" transform="matrix(0.2254 -0.9743 0.9743 0.2254 115.2364 460.9041)" width="9.07" x="342.94" y="156.41"/>
	</g>
	<path class="st2" d="M225.95,29.8c0,6.45-5.22,11.68-11.67,11.68c-2.23,0-4.32-0.63-6.08-1.71c0.58,0.11,1.19,0.16,1.8,0.16&#xD;&#xA;		c5.59,0,10.12-4.53,10.12-10.13c0-5.59-4.53-10.13-10.12-10.13c-0.61,0-1.21,0.05-1.79,0.16c1.77-1.08,3.84-1.7,6.07-1.7&#xD;&#xA;		C220.72,18.12,225.95,23.36,225.95,29.8z"/>
	<g>
		<path class="st6" d="M213.73,111.69c0.46,2.4,0.92,4.82,1.9,7.05c0.98,2.24,2.53,4.3,4.68,5.45c1.68,0.89,3.61,1.17,5.51,1.17&#xD;&#xA;			c2.26,0,4.56-0.4,6.55-1.48"/>
	</g>
	<g class="st10">
		<path class="st8" d="M148.47,148.75c-0.06,0.08-0.11,0.17-0.17,0.26c-0.04,0.09-0.09,0.18-0.14,0.27&#xD;&#xA;			c-0.12,0.24-0.22,0.48-0.32,0.72c-2.27-1.15-4.93-1.59-7.5-1.86c-3.39-0.34-6.89-0.47-10-1.86c-1.42-0.63-2.73-1.52-3.85-2.62&#xD;&#xA;			c0.26-0.37,0.79-0.57,1.27-0.51c0.63,0.07,1.19,0.49,1.73,0.84c1.64,1.07,3.49,1.83,5.41,2.19c-0.72-1.85-0.14-3.62,0.56-4.49&#xD;&#xA;			c0.8-0.99,1.98-1.58,3.18-1.98c0.73-0.24,1.54-0.41,2.23-0.11c0.7,0.31,1.12,1.28,0.64,1.85c-0.46,0.56-1.33,0.42-2.03,0.56&#xD;&#xA;			c-1.42,0.29-2.23,2.05-1.69,3.38c0.56,1.34,2.21,2.03,3.59,1.65c0.71-0.18,1.41-0.73,1.45-1.46c0.03-0.43-0.18-0.84-0.36-1.24&#xD;&#xA;			c-0.3-0.7-0.5-1.46-0.6-2.23c-0.07-0.64,0.04-1.48,0.66-1.69c0.84-0.29,1.43,0.79,1.69,1.64&#xD;&#xA;			C145,144.63,146.3,147.27,148.47,148.75z"/>
		<path class="st8" d="M217.22,80.87c-1.03,0.4-1.93,1.16-2.59,2.07c-0.77,1.04-1.22,2.37-1.18,3.66c0,0,0,0,0.01,0.01&#xD;&#xA;			c-2.28,0.02-4.57,0.95-6.14,2.63c-1.23,1.29-1.99,2.99-2.21,4.76c-0.16,0.28-0.31,0.56-0.46,0.84c-1.17,2.13-2.23,4.31-2.88,6.64&#xD;&#xA;			c-0.87,3.13-0.94,6.61,0.51,9.52c0.8,1.6,2.12,2.98,3.68,3.82v0.05c0.04,2.06-0.06,4.44-0.12,6.71c-0.01-0.01-0.02-0.01-0.03,0&#xD;&#xA;			c-4.67,0.1-10.49,2.17-12.84,5.1c-3.06,3.82-4.5,8.63-6.06,13.26c-1.56,4.63-3.43,9.38-7.05,12.66c-1.03,0.93-2.19,1.74-3.48,2.28&#xD;&#xA;			c-1.55,0.65-3.24,0.91-4.92,1.04c-5.94,0.46-11.99-0.65-17.38-3.18c-0.28-0.13-0.57-0.27-0.84-0.42c-0.54-0.28-1.05-0.6-1.5-1&#xD;&#xA;			c-0.69-0.6-1.23-1.37-1.99-1.87c-0.42-0.28-0.95-0.45-1.45-0.44c0.06-0.09,0.11-0.18,0.17-0.26c0.68-1.13,1.67-2.09,2.91-2.55&#xD;&#xA;			c0.32-0.12,0.71-0.19,0.98,0.02c0.2,0.15,0.28,0.42,0.43,0.64c0.51,0.63,1.55,0.37,2.3,0.7c0.34,0.16,0.63,0.45,0.83,0.77&#xD;&#xA;			c0.32,0.48,0.48,1.07,0.48,1.64c4.44,1.71,9.77,2.65,14.14,2.6c1.92-0.02,3.89-0.22,5.59-1.12c1.35-0.7,2.44-1.81,3.41-2.99&#xD;&#xA;			c1.44-1.76,5.97-10.83,7.12-15.28c1.05-4.06,2.66-8.12,5.59-11.1c2.23-2.28,5.6-4.82,11.61-4.53c-0.02-1-0.02-2-0.02-2.99&#xD;&#xA;			c-1.12-0.31-2.18-0.83-3.09-1.56c-2.59-2.09-3.72-5.6-3.64-8.93c0.07-3.05,1.04-5.99,2.18-8.82c-0.35-0.09-0.65-0.29-0.73-0.64&#xD;&#xA;			c-0.07-0.26,0.01-0.54,0.09-0.8c1.7-4.95,7.12-8.34,12.3-7.78c-0.18-0.65-0.21-1.33-0.07-1.98c0.33-1.49,1.51-2.74,2.95-3.25&#xD;&#xA;			C214.92,80.42,216.14,80.46,217.22,80.87z"/>
		<path class="st8" d="M298.05,92.88c0.81,2.28,2.13,4.34,3.65,6.25l-6.65-6.65c-2.94-2.94-2.94-7.7,0-10.64&#xD;&#xA;			c1.47-1.47,3.4-2.2,5.32-2.2c0.67,0,1.35,0.09,2,0.27c-1.69,0.72-3.15,2.06-4.01,3.7C296.87,86.42,296.98,89.88,298.05,92.88z"/>
		<path class="st8" d="M313.51,65.17c-0.24,1.46,0.04,2.98,0.56,4.38c0.01,0.03,0.02,0.07,0.04,0.1l-1.73-1.73&#xD;&#xA;			c-1.47-1.47-1.47-3.85,0-5.32c0.73-0.74,1.7-1.1,2.66-1.1c0.29,0,0.58,0.03,0.86,0.1C314.6,62.31,313.76,63.71,313.51,65.17z"/>
		<path class="st8" d="M295.85,58.99c-0.12,0.59-0.16,1.2-0.11,1.8l-0.71-0.71c-0.95-0.95-0.95-2.49,0-3.44&#xD;&#xA;			c0.48-0.48,1.1-0.71,1.72-0.71c0.25,0,0.49,0.04,0.73,0.11C296.66,56.82,296.08,57.88,295.85,58.99z"/>
		<path class="st8" d="M120.59,95.51h-0.58c-2.86,0-5.19-2.33-5.19-5.2v-12.6h5.43c0.03,1.68,0.06,3.36,0.09,5.04&#xD;&#xA;			c0.05,2.57,0.11,5.15,0.16,7.72C120.53,92.15,120.56,93.83,120.59,95.51z"/>
		<path class="st8" d="M124.77,68.73c-0.28,1.13-0.18,2.33,0.23,3.41c-0.32,0.56-0.55,1.16-0.6,1.8c-0.03,0.42,0.04,0.86,0.21,1.25&#xD;&#xA;			c-2.09-1.1-3.48-3.58-3.06-5.94c0.3-1.72,1.4-3.22,2.68-4.41c1.28-1.2,2.76-2.16,4.11-3.29c1.01-0.86,1.99-1.9,2.43-3.11&#xD;&#xA;			c-0.01,0.18-0.02,0.36-0.04,0.54C130.22,62.81,125.71,64.99,124.77,68.73z"/>
		<path class="st8" d="M68.54,146.19c0.01,1.07-0.2,2.16-0.64,3.14H54.94c1.13,0,2.14-0.44,2.87-1.19c0.73-0.73,1.19-1.75,1.19-2.87&#xD;&#xA;			c0-2.24-1.81-4.06-4.06-4.06H67C67.92,142.7,68.52,144.42,68.54,146.19z"/>
		<path class="st8" d="M47.06,162.86c0.12,0.96,0.46,1.9,0.95,2.74h-5.87c-2.24,0-4.07-1.83-4.07-4.07c0-1.12,0.46-2.14,1.19-2.88&#xD;&#xA;			c0.75-0.73,1.76-1.19,2.88-1.19h6.51C47.43,158.95,46.82,160.95,47.06,162.86z"/>
		<path class="st8" d="M343.11,150.42l1.55,3.98l-2.94,1.14l-0.47-1.22l-2.94,1.14l-1.07-2.76l-1.39,0.54l-1.14-2.94l1.39-0.54&#xD;&#xA;			l-1.07-2.75l2.93-1.14l-0.47-1.22l2.94-1.14l1.54,3.98h0.01l5.05-1.97c0.47,0.94,0.9,1.91,1.27,2.89L343.11,150.42z"/>
		<path class="st8" d="M357.58,158.67c-0.24,1.02-0.45,2.05-0.63,3.08l-5.21-1.2l-0.96,4.16l-3.07-0.71l0.29-1.27l-3.06-0.71&#xD;&#xA;			l0.67-2.89l-1.45-0.33l0.71-3.07l1.45,0.34l0.67-2.88l3.06,0.71l0.3-1.28l3.06,0.71l-0.96,4.16L357.58,158.67z"/>
		<g>
			<path class="st8" d="M197.36,171.83c-1.28-0.43-2.55-0.85-3.84-1.26c0-0.01-0.01-0.01-0.02-0.01h-0.01&#xD;&#xA;				c-5.84-1.92-11.76-3.65-17.84-4.45c-4.49-0.6-9.66-0.45-12.7,2.9c-2.55,2.8-2.76,7.2-1.24,10.67c1.08,2.46,2.88,4.51,4.97,6.21&#xD;&#xA;				c-3.36-1.46-6.63-3.19-9.33-5.64c-2.92-2.64-5.15-6.23-5.45-10.15c-0.1-1.09-0.03-2.21,0.36-3.23c1.08-2.82,4.26-4.18,7.22-4.73&#xD;&#xA;				c0.79-0.16,1.57-0.26,2.36-0.34h0.01c4.43,1.27,8.96,2.27,12.92,2.59c1.55,0.12,3.14,0.15,4.64-0.26&#xD;&#xA;				c0.06-0.01,0.11-0.03,0.16-0.05c1.25,0.37,2.49,0.76,3.72,1.16c2.33,0.77,4.66,1.58,6.96,2.43c0.09,0.03,0.18,0.07,0.27,0.1&#xD;&#xA;				l0.01,0.01v-0.01h-0.01c-0.07-0.1-0.14-0.18-0.2-0.28c1.32-3.75,1.68-7.89,1.88-11.91c0.09-1.79,0.15-3.59,0.18-5.4&#xD;&#xA;				c0.02-0.89,0.02-1.78,0.02-2.67c1.14,4.2,1.19,8.74,1.64,13.13C194.44,164.51,195.35,168.59,197.36,171.83z"/>
		</g>
		<g>
			<path class="st8" d="M226.04,125.34c-0.04,0.01-0.09,0.02-0.13,0.03h-0.01c-0.19,0.05-0.39,0.09-0.58,0.12&#xD;&#xA;				c-0.04,0.01-0.07,0.02-0.11,0.02c-0.04,0.01-0.07,0.02-0.1,0.02c-0.17,0.03-0.33,0.05-0.5,0.06c-0.11,0.02-0.23,0.03-0.34,0.03&#xD;&#xA;				c-0.47,0.03-0.94,0.03-1.41,0c-0.18-0.01-0.35-0.03-0.53-0.05c-0.35-0.04-0.7-0.1-1.04-0.18c-0.17-0.04-0.34-0.08-0.51-0.13&#xD;&#xA;				h-0.01c-0.31-0.09-0.6-0.19-0.89-0.3c-0.15-0.06-0.29-0.12-0.44-0.18c-0.11-0.05-0.21-0.1-0.32-0.15s-0.21-0.11-0.32-0.17&#xD;&#xA;				c-0.11-0.06-0.21-0.11-0.31-0.17c-0.1-0.05-0.2-0.11-0.3-0.18c-0.53-0.33-1.03-0.72-1.48-1.16c-0.85-0.82-1.51-1.81-1.98-2.89&#xD;&#xA;				c-0.76-1.67-1.05-3.56-0.83-5.38c0.03-0.19,0.06-0.39,0.09-0.59v-0.01c0.03-0.15,0.06-0.29,0.1-0.43c0-0.04,0.01-0.08,0.03-0.12&#xD;&#xA;				c0.37,1.77,0.81,3.53,1.54,5.19c0.98,2.24,2.53,4.3,4.68,5.45c1.68,0.89,3.62,1.17,5.51,1.17H226.04z"/>
		</g>
		<g>
			<path class="st8" d="M218.96,35.34c-0.76,0.87-1.63,1.66-2.58,2.32c2.29-1.86,3.76-4.7,3.76-7.89c0-5.59-4.53-10.13-10.12-10.13&#xD;&#xA;				c-0.61,0-1.21,0.05-1.79,0.16c1.77-1.08,3.84-1.7,6.07-1.7c3.3,0,6.27,1.37,8.39,3.56C223.48,26.47,222.18,31.65,218.96,35.34z"/>
		</g>
		<g>
			<path class="st8" d="M76.51,157.46H63.97c1.13,0,2.15-0.46,2.88-1.19c0.73-0.73,1.19-1.75,1.19-2.87c0-0.25-0.02-0.5-0.07-0.74&#xD;&#xA;				c-0.02-0.11-0.04-0.21-0.07-0.31c-0.02-0.09-0.05-0.18-0.08-0.26c-0.03-0.09-0.06-0.18-0.1-0.27c-0.05-0.12-0.1-0.24-0.17-0.35&#xD;&#xA;				c0-0.01,0-0.01,0-0.02c-0.04-0.07-0.09-0.15-0.14-0.22c-0.04-0.07-0.08-0.14-0.14-0.21c-0.07-0.1-0.14-0.19-0.22-0.28&#xD;&#xA;				c-0.01-0.01-0.02-0.03-0.04-0.04c-0.08-0.09-0.17-0.18-0.26-0.27c0,0,0,0-0.01-0.01c-0.1-0.1-0.2-0.18-0.31-0.26&#xD;&#xA;				c-0.11-0.09-0.24-0.17-0.36-0.24c-0.1-0.06-0.2-0.12-0.3-0.17c-0.16-0.08-0.33-0.15-0.5-0.2c-0.13-0.05-0.27-0.09-0.41-0.12&#xD;&#xA;				c-0.14-0.03-0.29-0.06-0.44-0.07c-0.14-0.02-0.3-0.03-0.45-0.03h12.49c0.4,0.72,0.6,1.59,0.7,2.41&#xD;&#xA;				C77.41,153.65,77.27,155.73,76.51,157.46z"/>
		</g>
	</g>
	<path class="st11" d="M148.44,148.78c-0.12,0.17-0.21,0.35-0.31,0.53c-0.31,0.61-0.54,1.26-0.74,1.92&#xD;&#xA;		c-0.22,0.79-0.39,1.62-0.54,2.43c-0.07,0.41-0.14,0.83-0.18,1.24c-2.03,0.79-4.35,0.84-6.39,0.07c-1.07-0.4-2.06-1.01-3.15-1.39&#xD;&#xA;		c-2.42-0.83-5.09-0.42-7.61-0.92c-0.61-0.12-1.26-0.33-1.67-0.81c-0.41-0.48-0.44-1.33,0.09-1.69c0.21-0.14,0.48-0.19,0.74-0.22&#xD;&#xA;		c1.5-0.22,3.01-0.44,4.5-0.66c-2.65-0.92-5.59-2.49-6.65-4.32c-0.14-0.25-0.27-0.52-0.26-0.81c0.04-0.65,0.8-1.05,1.45-0.97&#xD;&#xA;		c0.64,0.07,1.19,0.48,1.73,0.84c1.64,1.07,3.49,1.83,5.41,2.19c-0.72-1.85-0.14-3.62,0.55-4.49c0.8-0.99,1.98-1.58,3.18-1.98&#xD;&#xA;		c0.73-0.24,1.53-0.41,2.23-0.11c0.7,0.31,1.12,1.27,0.64,1.85c-0.46,0.55-1.33,0.41-2.03,0.55c-1.42,0.29-2.23,2.05-1.69,3.38&#xD;&#xA;		c0.55,1.33,2.21,2.03,3.58,1.65c0.71-0.19,1.42-0.73,1.45-1.46c0.04-0.44-0.18-0.84-0.35-1.24c-0.31-0.71-0.51-1.46-0.6-2.23&#xD;&#xA;		c-0.07-0.65,0.04-1.49,0.66-1.7c0.84-0.28,1.43,0.79,1.69,1.64C144.97,144.65,146.27,147.29,148.44,148.78z"/>
	<path class="st11" d="M283.68,149.27c1.51,0.22,3,0.44,4.5,0.66c0.26,0.04,0.53,0.08,0.74,0.22c0.53,0.35,0.5,1.2,0.09,1.69&#xD;&#xA;		c-0.41,0.48-1.06,0.7-1.69,0.81c-2.51,0.5-5.18,0.09-7.59,0.92c-1.08,0.38-2.08,0.99-3.15,1.39c-2.04,0.77-4.36,0.72-6.38-0.07&#xD;&#xA;		h-0.01c-0.02-0.41-0.09-0.83-0.18-1.24c-0.15-0.81-0.32-1.63-0.55-2.42c-0.19-0.66-0.42-1.31-0.74-1.93&#xD;&#xA;		c-0.09-0.18-0.19-0.37-0.29-0.53c2.16-1.5,3.46-4.13,4.25-6.7c0.25-0.85,0.85-1.92,1.69-1.64c0.63,0.21,0.73,1.05,0.65,1.7&#xD;&#xA;		c-0.09,0.77-0.29,1.52-0.6,2.23c-0.17,0.4-0.38,0.8-0.35,1.24c0.05,0.73,0.74,1.27,1.45,1.46c1.39,0.38,3.04-0.32,3.58-1.65&#xD;&#xA;		c0.55-1.33-0.27-3.09-1.67-3.38c-0.71-0.14-1.57,0-2.03-0.55c-0.5-0.58-0.06-1.54,0.64-1.85c0.7-0.31,1.5-0.13,2.22,0.11&#xD;&#xA;		c1.2,0.4,2.39,0.99,3.18,1.98c0.7,0.87,1.29,2.65,0.55,4.5c1.92-0.38,3.79-1.13,5.41-2.21c0.55-0.35,1.1-0.77,1.75-0.84&#xD;&#xA;		c0.65-0.08,1.4,0.32,1.44,0.97c0.02,0.29-0.11,0.57-0.25,0.81C289.27,146.78,286.33,148.35,283.68,149.27z"/>
	<path class="st11" d="M215.97,104.4c-0.19,0.39-0.47,0.77-0.86,0.94c-0.19,0.08-0.4,0.11-0.6,0.08c-1.3,1.77-1.24,4.53,0.34,6.11&#xD;&#xA;		c-1.37,2.62-1.36,5.86-0.14,8.55c-1.6,0.96-3.33,1.75-5.17,1.97c-2.04,0.27-4.28-0.26-5.71-1.75c0-0.91-0.01-1.82,0-2.74&#xD;&#xA;		c-0.01-1-0.01-2-0.01-3c-1.12-0.31-2.18-0.83-3.09-1.56c-2.59-2.09-3.73-5.6-3.64-8.93c0.07-3.05,1.04-5.99,2.18-8.82&#xD;&#xA;		c0.32,0.08,0.67,0.08,0.99,0.04c1.5-0.27,2.9-1.04,3.93-2.17c1.06,6.51,7.67,8.79,11.95,8.46&#xD;&#xA;		C216.43,102.5,216.38,103.54,215.97,104.4z"/>
	<path class="st12" d="M155.12,149.49c-2.21,2.46-3.35,5.84-3.13,9.12c0.52,0.19,1.04,0.38,1.57,0.55c-0.13,0.2-0.27,0.38-0.45,0.53&#xD;&#xA;		c-0.54,0.47-1.44,0.63-1.97,0.14c-0.18-0.17-0.29-0.38-0.46-0.54c-0.62-0.63-1.65-0.46-2.46-0.79c-0.84-0.34-1.37-1.23-1.53-2.12&#xD;&#xA;		c-0.08-0.48-0.07-0.98-0.01-1.47c0.04-0.41,0.11-0.83,0.18-1.24c0.15-0.81,0.32-1.64,0.54-2.43c0.2-0.66,0.44-1.31,0.74-1.92&#xD;&#xA;		c0.09-0.18,0.19-0.37,0.31-0.53c0.68-1.13,1.67-2.1,2.91-2.56c0.32-0.12,0.71-0.19,0.98,0.02c0.2,0.15,0.28,0.42,0.44,0.64&#xD;&#xA;		c0.51,0.64,1.54,0.38,2.3,0.71c0.34,0.15,0.62,0.45,0.83,0.77c0.32,0.48,0.48,1.07,0.48,1.64&#xD;&#xA;		C155.95,149.84,155.53,149.66,155.12,149.49z"/>
	<path class="st12" d="M270.18,156.37c-0.15,0.9-0.68,1.78-1.52,2.12c-0.81,0.33-1.85,0.17-2.46,0.79&#xD;&#xA;		c-0.17,0.17-0.28,0.38-0.46,0.54c-0.53,0.48-1.43,0.33-1.97-0.14c-0.18-0.15-0.32-0.33-0.45-0.53c0.53-0.19,1.05-0.38,1.57-0.55&#xD;&#xA;		c0.21-3.29-0.94-6.66-3.13-9.13c-0.41,0.19-0.84,0.37-1.27,0.52c0.01-0.58,0.18-1.14,0.48-1.64c0.21-0.32,0.48-0.61,0.84-0.77&#xD;&#xA;		c0.74-0.33,1.79-0.07,2.29-0.71c0.17-0.21,0.24-0.48,0.45-0.64c0.27-0.21,0.66-0.14,0.98-0.02c1.24,0.46,2.23,1.43,2.91,2.56&#xD;&#xA;		c0.11,0.17,0.2,0.35,0.29,0.53c0.32,0.62,0.55,1.27,0.74,1.93c0.24,0.79,0.4,1.6,0.55,2.42c0.08,0.41,0.15,0.83,0.18,1.24h0.01&#xD;&#xA;		C270.26,155.39,270.27,155.89,270.18,156.37z"/>
	<path class="st12" d="M249.16,152.5c-0.97,0.07-1.91,0.11-2.81,0.09c-1.92-0.02-3.89-0.22-5.59-1.12c-1.36-0.71-2.45-1.82-3.42-3&#xD;&#xA;		c-1.44-1.76-2.62-3.73-3.53-5.81c-1.44-3.34-4.46-12.39-7.11-17.51c-3.4,1.16-7.44,0.33-10.02-2.18c-0.85-0.83-1.51-1.82-1.98-2.89&#xD;&#xA;		c-1.21-2.69-1.23-5.93,0.14-8.55c-1.58-1.58-1.64-4.34-0.34-6.11c0.2,0.02,0.41,0,0.6-0.08c0.39-0.18,0.67-0.55,0.86-0.94&#xD;&#xA;		c0.41-0.86,0.46-1.9,0.17-2.81c-4.28,0.33-10.88-1.95-11.95-8.46c-1.03,1.13-2.43,1.9-3.93,2.17c-0.32,0.05-0.67,0.05-0.99-0.04&#xD;&#xA;		c-0.35-0.09-0.65-0.29-0.73-0.64c-0.07-0.26,0.01-0.54,0.09-0.8c1.7-4.95,7.11-8.34,12.3-7.78c0.17,0.01,0.34,0.04,0.51,0.06&#xD;&#xA;		c2.52,0.39,4.83,1.71,6.57,3.55c1.97,2.09,3.23,4.84,3.29,7.7c1.03-0.41,2.33,0.08,2.83,1.08c0.5,0.99,0.09,2.33-0.86,2.9&#xD;&#xA;		c3.82,1.18,7.06,4.14,8.57,7.85c1.5,3.7,1.25,8.09-0.67,11.6c3.9,1.73,7.55,4.06,10.78,6.85c2.54,2.19,4.84,4.71,6.42,7.65&#xD;&#xA;		C251.18,140.53,251.33,147,249.16,152.5z"/>
	<path class="st13" d="M220,87.39c-0.4,0.94-1.12,1.73-1.99,2.28c-1.73-1.84-4.04-3.16-6.57-3.55c-0.17-0.02-0.34-0.05-0.51-0.06&#xD;&#xA;		c-0.19-0.65-0.21-1.33-0.07-1.98c0.33-1.49,1.51-2.74,2.95-3.24c1.79-0.64,3.93-0.12,5.24,1.26&#xD;&#xA;		C220.34,83.47,220.74,85.64,220,87.39z"/>
	<path class="st12" d="M264.99,170.12c-0.31,3.92-2.53,7.51-5.44,10.15c-2.92,2.64-6.49,4.44-10.11,5.98&#xD;&#xA;		c-2.23,0.95-5.37,1.85-8.99,2.74h-9.02c-0.14-0.8-0.53-1.57-0.95-2.28c-1.3-2.15-3.06-4.08-5.29-5.26&#xD;&#xA;		c-1.33-0.72-2.84-1.14-4.36-1.19c-1.3,0.88-2.59,1.84-3.9,2.84c-2.74,2.11-5.65,3.98-8.49,5.44c-2.86-1.45-5.77-3.33-8.52-5.44&#xD;&#xA;		c-1.31-1-2.6-1.96-3.89-2.84c-1.52,0.05-3.04,0.47-4.37,1.19c-2.22,1.18-3.99,3.11-5.29,5.26c-0.42,0.72-0.81,1.48-0.94,2.28h-9.02&#xD;&#xA;		c-3.62-0.89-6.76-1.79-8.99-2.74c-3.62-1.54-7.19-3.34-10.1-5.98c-2.92-2.64-5.15-6.23-5.45-10.15c-0.1-1.09-0.03-2.21,0.36-3.23&#xD;&#xA;		c1.08-2.82,4.26-4.18,7.22-4.73c0.79-0.16,1.57-0.26,2.36-0.34h0.01c4.43,1.27,8.96,2.27,12.93,2.59c1.54,0.12,3.13,0.15,4.63-0.26&#xD;&#xA;		c0.06-0.01,0.11-0.03,0.16-0.05c1.25,0.37,2.49,0.76,3.72,1.16c2.33,0.77,4.66,1.58,6.96,2.43c0.09,0.03,0.19,0.07,0.28,0.1&#xD;&#xA;		c2.16,2.7,7.26,6.8,18.67,7.65c8.23,0.62,13.75-3.34,17.27-7.68c0.06-0.02,0.13-0.05,0.19-0.07c0.88-0.33,1.76-0.65,2.64-0.96&#xD;&#xA;		c1.44-0.5,2.88-1,4.33-1.47c1.23-0.4,2.47-0.79,3.71-1.16c0.05,0.02,0.1,0.04,0.16,0.05c0.09,0.02,0.19,0.05,0.28,0.07&#xD;&#xA;		c1.42,0.34,2.9,0.3,4.37,0.19c3.96-0.32,8.5-1.32,12.92-2.59c0.79,0.08,1.57,0.18,2.36,0.34c2.96,0.55,6.16,1.91,7.23,4.73&#xD;&#xA;		C265.03,167.92,265.09,169.04,264.99,170.12z"/>
	<path class="st12" d="M264.88,158.6c-0.52,0.18-1.04,0.37-1.57,0.55c-2.58,0.92-5.4,1.85-8.27,2.67&#xD;&#xA;		c-4.42,1.27-8.96,2.28-12.92,2.59c-1.46,0.11-2.95,0.15-4.36-0.19c-0.09-0.02-0.19-0.05-0.28-0.07c-0.06-0.01-0.11-0.04-0.17-0.05&#xD;&#xA;		c-1.3-0.38-2.49-1.06-3.58-1.85c-0.97-0.68-1.88-1.45-2.71-2.28c-2.63-2.57-4.66-5.72-6.18-9.04c-0.11-0.24-0.22-0.48-0.32-0.73&#xD;&#xA;		c0.04,1.8,0.09,3.61,0.18,5.4c0.17,3.51,0.47,7.13,1.44,10.5c0.13,0.5,0.29,0.99,0.46,1.47c-0.05,0.07-0.09,0.13-0.14,0.19&#xD;&#xA;		c-3.53,4.34-9.04,8.3-17.28,7.68c-11.4-0.85-16.51-4.94-18.67-7.64c-0.07-0.09-0.15-0.19-0.21-0.28c1.32-3.75,1.69-7.89,1.89-11.91&#xD;&#xA;		c0.08-1.79,0.14-3.6,0.18-5.4c-0.11,0.25-0.21,0.5-0.32,0.73c-2,4.39-4.92,8.49-8.9,11.32c-1.1,0.79-2.28,1.47-3.58,1.85&#xD;&#xA;		c-0.06,0.01-0.11,0.04-0.17,0.05c-1.5,0.41-3.09,0.38-4.63,0.26c-3.96-0.32-8.49-1.32-12.92-2.59h-0.01&#xD;&#xA;		c-2.85-0.81-5.67-1.73-8.25-2.67c-0.53-0.18-1.05-0.37-1.57-0.55c-0.22-3.28,0.92-6.65,3.13-9.12c0.41,0.18,0.84,0.35,1.26,0.51&#xD;&#xA;		c4.43,1.71,9.76,2.65,14.14,2.61c1.92-0.02,3.89-0.22,5.59-1.12c1.34-0.71,2.44-1.82,3.41-3c1.44-1.76,5.97-10.83,7.12-15.28&#xD;&#xA;		c1.05-4.06,2.65-8.11,5.59-11.1c2.23-2.28,5.6-4.82,11.6-4.53c-0.01,0.92,0,1.83,0,2.74c1.43,1.49,3.67,2.02,5.71,1.75&#xD;&#xA;		c1.84-0.22,3.56-1.01,5.17-1.97c0.47,1.07,1.13,2.06,1.98,2.89c2.58,2.51,6.63,3.34,10.02,2.18c2.65,5.12,5.67,14.17,7.11,17.51&#xD;&#xA;		c0.91,2.09,2.09,4.06,3.53,5.81c0.97,1.18,2.06,2.29,3.42,3c1.7,0.9,3.67,1.1,5.59,1.12c0.9,0.01,1.84-0.02,2.81-0.09&#xD;&#xA;		c3.71-0.28,7.79-1.16,11.32-2.51c0.44-0.15,0.86-0.33,1.27-0.52C263.94,151.94,265.09,155.31,264.88,158.6z"/>
	<path class="st11" d="M209.35,188.99h-23.92c0.13-0.8,0.52-1.56,0.94-2.28c1.3-2.15,3.07-4.08,5.29-5.26&#xD;&#xA;		c1.33-0.72,2.85-1.14,4.37-1.19c1.29,0.88,2.58,1.84,3.89,2.84c2.75,2.11,5.66,3.99,8.52,5.44&#xD;&#xA;		C208.74,188.71,209.04,188.86,209.35,188.99z"/>
	<path class="st12" d="M170.15,172.45c8.4-1.46,16.98,1.7,25.88,7.82"/>
	<path class="st11" d="M231.43,188.99h-22.08c-0.31-0.14-0.61-0.29-0.91-0.45c2.84-1.46,5.75-3.33,8.49-5.44&#xD;&#xA;		c1.31-1,2.6-1.96,3.9-2.84c1.52,0.05,3.03,0.47,4.36,1.19c2.23,1.18,3.99,3.11,5.29,5.26C230.91,187.43,231.29,188.2,231.43,188.99&#xD;&#xA;		z"/>
	<path class="st12" d="M220.84,180.26c8.92-6.12,17.49-9.28,25.88-7.82"/>
	<path class="st12" d="M136.52,146.44c-0.55-0.05-1.1-0.12-1.64-0.24"/>
	<path class="st12" d="M136.24,148.84c-1.01,0.14-2.03,0.29-3.04,0.44"/>
	<path class="st12" d="M192.32,143.16c0.06,2.35,0.07,4.69,0.04,7.04"/>
	<path class="st12" d="M155.39,149.18c-0.09,0.11-0.19,0.2-0.27,0.31"/>
	<path class="st12" d="M152.01,158.9c-0.01-0.09-0.01-0.2-0.02-0.29"/>
	<path class="st12" d="M281.98,146.22c-0.54,0.11-1.08,0.18-1.63,0.22"/>
	<path class="st12" d="M280.62,148.84c1.01,0.14,2.03,0.29,3.04,0.44h0.01"/>
	<path class="st12" d="M269.47,151.24c2.05-0.78,4.32-1,6.47-0.65"/>
	<path class="st12" d="M224.52,150.2c-0.04-2.35-0.02-4.69,0.04-7.04"/>
	<path class="st12" d="M261.76,149.47c-0.09-0.09-0.18-0.2-0.27-0.29"/>
	<path class="st12" d="M264.88,158.6c-0.01,0.11-0.01,0.2-0.02,0.29"/>
	<path class="st12" d="M203.82,114.58c1.12,0.31,2.3,0.4,3.44,0.26c1.14-0.13,2.26-0.5,3.29-1.05"/>
	<path class="st13" d="M237.31,164.11c-1.24,0.37-2.48,0.75-3.7,1.16c-1.45,0.47-2.89,0.97-4.33,1.47&#xD;&#xA;		c-0.88,0.31-1.77,0.63-2.64,0.96c-0.01-0.04-0.04-0.08-0.05-0.12c-0.17-0.48-0.33-0.98-0.46-1.47c-0.97-3.36-1.27-6.98-1.44-10.5&#xD;&#xA;		c-0.08-1.79-0.14-3.6-0.18-5.4c0.09,0.25,0.21,0.5,0.32,0.73c1.52,3.33,3.55,6.47,6.18,9.04c0.84,0.83,1.75,1.59,2.71,2.28&#xD;&#xA;		C234.82,163.05,236.01,163.73,237.31,164.11z"/>
	<path class="st12" d="M218.71,100.92c-0.65,0.37-1.54,0.6-2.58,0.67"/>
	<path class="st12" d="M204.18,93.14c-0.09-0.58-0.14-1.19-0.14-1.84"/>
	<path class="st12" d="M214.5,105.43c-0.22-0.04-0.45-0.14-0.58-0.33"/>
	<path class="st12" d="M228.17,124.52c-0.47,0.26-0.96,0.47-1.46,0.64"/>
	<path class="st12" d="M140.54,150.59c2.29-0.38,4.68-0.09,6.82,0.78"/>
	<path class="st12" d="M316.96,81.87c2.94,2.94,2.94,7.7,0.01,10.64l-0.33,0.33l-10.65,10.64l-10.96-10.96&#xD;&#xA;		c-2.94-2.94-2.94-7.71,0-10.65l0,0c2.94-2.94,7.7-2.93,10.64,0l0.32,0.32l0.33-0.33C309.25,78.92,314.01,78.93,316.96,81.87&#xD;&#xA;		L316.96,81.87z"/>
	<path class="st12" d="M323.32,62.62c1.47,1.47,1.47,3.85,0,5.32l-0.16,0.16l-5.32,5.32l-5.48-5.48c-1.47-1.47-1.47-3.85,0-5.32l0,0&#xD;&#xA;		c1.47-1.47,3.85-1.47,5.32,0l0.16,0.16l0.16-0.16C319.47,61.15,321.85,61.15,323.32,62.62L323.32,62.62z"/>
	<path class="st12" d="M302.1,56.66c0.95,0.95,0.95,2.49,0,3.44l-0.11,0.11l-3.44,3.44l-3.54-3.54c-0.95-0.95-0.95-2.49,0-3.44v0&#xD;&#xA;		c0.95-0.95,2.49-0.95,3.44,0l0.1,0.1l0.11-0.11C299.61,55.71,301.15,55.71,302.1,56.66L302.1,56.66z"/>
	<path class="st12" d="M307.3,71.58c-1.02,0.53-1.85,2.08-2.24,4.11c-0.4-2.03-1.23-3.58-2.24-4.11c1.02-0.54,1.85-2.08,2.24-4.11&#xD;&#xA;		C305.45,69.5,306.28,71.05,307.3,71.58z"/>
	<path class="st12" d="M152.32,97.64c-1.77,0.93-3.21,3.62-3.9,7.15c-0.69-3.53-2.13-6.22-3.9-7.15c1.77-0.93,3.21-3.62,3.9-7.14&#xD;&#xA;		C149.1,94.02,150.54,96.71,152.32,97.64z"/>
	<path class="st12" d="M282.9,91.64c-2.33,1.22-4.23,4.77-5.15,9.42c-0.91-4.65-2.81-8.21-5.15-9.42c2.33-1.23,4.23-4.78,5.15-9.42&#xD;&#xA;		C278.66,86.86,280.56,90.42,282.9,91.64z"/>
	<path class="st14" d="M201.05,27.17c-1.59,0.83-2.89,3.26-3.51,6.44c-0.62-3.18-1.92-5.6-3.51-6.44c1.59-0.84,2.89-3.26,3.51-6.44&#xD;&#xA;		C198.16,23.91,199.46,26.33,201.05,27.17z"/>
	<path class="st12" d="M70.28,125.96c-1.77,0.92-3.21,3.62-3.9,7.14c-0.69-3.53-2.13-6.22-3.9-7.14c1.77-0.93,3.21-3.62,3.9-7.14&#xD;&#xA;		C67.07,122.34,68.51,125.03,70.28,125.96z"/>
	<path class="st12" d="M95.11,149.4c-0.89,0.46-1.61,1.81-1.95,3.57c-0.35-1.76-1.07-3.11-1.95-3.57c0.88-0.47,1.6-1.81,1.95-3.57&#xD;&#xA;		C93.51,147.59,94.22,148.93,95.11,149.4z"/>
	<path class="st12" d="M109.79,59.52c-0.89,0.46-1.61,1.81-1.95,3.57c-0.35-1.76-1.07-3.11-1.95-3.57c0.88-0.47,1.6-1.81,1.95-3.57&#xD;&#xA;		C108.17,57.71,108.9,59.05,109.79,59.52z"/>
	<path class="st14" d="M229.49,51.69c-0.8,0.42-1.45,1.63-1.76,3.22c-0.31-1.59-0.96-2.8-1.76-3.22c0.8-0.42,1.45-1.63,1.76-3.22&#xD;&#xA;		C228.04,50.06,228.69,51.27,229.49,51.69z"/>
	<path class="st12" d="M325.99,143.61c-1.05,0.55-1.91,2.15-2.32,4.25c-0.41-2.1-1.27-3.7-2.32-4.25c1.05-0.55,1.91-2.16,2.32-4.25&#xD;&#xA;		C324.08,141.45,324.93,143.06,325.99,143.61z"/>
	<path class="st12" d="M381.14,146.96c-2.09,1.09-3.8,4.28-4.61,8.45c-0.82-4.17-2.52-7.35-4.61-8.45c2.09-1.1,3.8-4.28,4.61-8.45&#xD;&#xA;		C377.35,142.67,379.05,145.86,381.14,146.96z"/>
	<path class="st12" d="M136.38,79.43c-0.89,0-1.73,0.24-2.44,0.68v-2.37h-19.14v12.6c0,2.87,2.33,5.2,5.19,5.2h8.76&#xD;&#xA;		c2.87,0,5.19-2.33,5.19-5.2v-2.13c0.71,0.43,1.55,0.68,2.44,0.68c2.61,0,4.73-2.11,4.73-4.73&#xD;&#xA;		C141.1,81.55,138.98,79.43,136.38,79.43z M124.36,90.49h-5.69V84.8l0.7-2.03h4.29l0.7,2.03V90.49z M136.38,87.43&#xD;&#xA;		c-0.97,0-1.84-0.42-2.44-1.09v-4.36c0.6-0.67,1.47-1.09,2.44-1.09c1.8,0,3.27,1.46,3.27,3.27S138.17,87.43,136.38,87.43z"/>
	<polygon class="st12" points="124.36,84.8 124.36,90.49 118.67,90.49 118.67,84.8 119.38,82.78 123.66,82.78"/>
	<line class="st12" x1="121.52" x2="121.52" y1="82.78" y2="77.74"/>
	<path class="st12" d="M133.93,60.18c-0.13,2.39-1.64,4.48-3.35,6.16c-1.69,1.67-3.65,3.1-5.08,5.02c-0.57,0.77-1.06,1.64-1.13,2.6&#xD;&#xA;		c-0.03,0.42,0.04,0.86,0.21,1.25c-2.09-1.1-3.48-3.58-3.06-5.94c0.3-1.72,1.4-3.22,2.68-4.41c1.28-1.2,2.76-2.16,4.11-3.29&#xD;&#xA;		c1.38-1.16,2.69-2.68,2.68-4.48c-0.01-1.24-0.66-2.38-1.45-3.33c-0.59-0.72-1.27-1.36-2.02-1.91c0.58,0,1.15,0.1,1.68,0.32&#xD;&#xA;		c1.39,0.57,2.42,1.77,3.21,3.05C133.34,56.73,134.02,58.43,133.93,60.18z"/>
	<path class="st12" d="M77.85,145.29c0,1.13-0.46,2.15-1.19,2.88c-0.73,0.75-1.74,1.19-2.88,1.19H54.91c1.13,0,2.14-0.44,2.87-1.19&#xD;&#xA;		c0.73-0.73,1.19-1.75,1.19-2.88c0-2.24-1.81-4.05-4.06-4.05h18.86C76.04,141.24,77.85,143.05,77.85,145.29z"/>
	<path class="st15" d="M86.89,153.43c0,1.12-0.46,2.14-1.2,2.87c-0.73,0.73-1.74,1.19-2.87,1.19H63.95c1.13,0,2.15-0.46,2.88-1.19&#xD;&#xA;		c0.73-0.73,1.19-1.75,1.19-2.87c0-2.25-1.82-4.07-4.07-4.07h18.87C85.07,149.36,86.89,151.18,86.89,153.43z"/>
	<path class="st12" d="M60.98,165.62H42.12c-2.24,0-4.07-1.83-4.07-4.07c0-1.12,0.46-2.13,1.19-2.88c0.74-0.73,1.76-1.19,2.88-1.19&#xD;&#xA;		h18.87c-1.12,0-2.13,0.46-2.88,1.19c-0.73,0.74-1.19,1.76-1.19,2.88C56.92,163.79,58.74,165.62,60.98,165.62z"/>
	<path class="st12" d="M58.98,145.29c0,1.12-0.46,2.15-1.19,2.88c-0.73,0.74-1.75,1.19-2.88,1.19H40.82v-8.13h14.09&#xD;&#xA;		C57.16,141.23,58.98,143.05,58.98,145.29z"/>
	<path class="st12" d="M68.02,153.43c0,1.12-0.46,2.14-1.19,2.87c-0.73,0.73-1.75,1.19-2.88,1.19H45.33v-8.13h18.62&#xD;&#xA;		C66.2,149.36,68.02,151.18,68.02,153.43z"/>
	<path class="st12" d="M78.17,157.49v8.14H60.98c-2.24,0-4.07-1.83-4.07-4.07c0-1.12,0.46-2.14,1.19-2.88&#xD;&#xA;		c0.74-0.73,1.76-1.19,2.88-1.19H78.17z"/>
	
		<rect class="st12" height="3.15" transform="matrix(0.9322 -0.3618 0.3618 0.9322 -32.0635 131.8234)" width="1.49" x="335.21" y="149.95"/>
	
		<rect class="st12" height="3.15" transform="matrix(0.9322 -0.3618 0.3618 0.9322 -29.7145 135.6092)" width="10.13" x="342.17" y="145.57"/>
	
		<rect class="st12" height="3.15" transform="matrix(0.9322 -0.3618 0.3618 0.9322 -27.3655 139.395)" width="1.49" x="357.77" y="141.19"/>
	<g>
		
			<rect class="st12" height="11.69" transform="matrix(0.9322 -0.3618 0.3618 0.9322 -28.4264 137.6851)" width="3.15" x="351.85" y="138.9"/>
		
			<rect class="st12" height="9.07" transform="matrix(0.9322 -0.3618 0.3618 0.9322 -27.8167 138.6702)" width="3.15" x="354.79" y="139.08"/>
		
			<rect class="st12" height="11.69" transform="matrix(0.9322 -0.3618 0.3618 0.9322 -31.0025 133.5333)" width="3.15" x="339.48" y="143.7"/>
		
			<rect class="st12" height="9.07" transform="matrix(0.9322 -0.3618 0.3618 0.9322 -31.6144 132.5495)" width="3.15" x="336.54" y="146.16"/>
	</g>
	
		<rect class="st12" height="1.49" transform="matrix(0.2254 -0.9743 0.9743 0.2254 113.9992 458.2958)" width="3.15" x="343.64" y="156.71"/>
	
		<rect class="st12" height="10.13" transform="matrix(0.2254 -0.9743 0.9743 0.2254 120.4753 471.8972)" width="3.15" x="355.43" y="155.12"/>
	
		<rect class="st12" height="1.49" transform="matrix(0.2254 -0.9743 0.9743 0.2254 126.9514 485.4987)" width="3.15" x="367.22" y="162.17"/>
	<g>
		
			<rect class="st12" height="3.15" transform="matrix(0.2254 -0.9743 0.9743 0.2254 124.0264 479.3553)" width="11.69" x="357.63" y="160.11"/>
		
			<rect class="st12" height="3.15" transform="matrix(0.2254 -0.9743 0.9743 0.2254 125.7065 482.894)" width="9.07" x="362" y="160.82"/>
		
			<rect class="st12" height="3.15" transform="matrix(0.2254 -0.9743 0.9743 0.2254 116.9242 464.4391)" width="11.69" x="344.7" y="157.11"/>
		
			<rect class="st12" height="3.15" transform="matrix(0.2254 -0.9743 0.9743 0.2254 115.2364 460.9041)" width="9.07" x="342.94" y="156.41"/>
	</g>
	<path class="st14" d="M225.95,29.8c0,6.45-5.22,11.68-11.67,11.68c-2.23,0-4.32-0.63-6.08-1.71c0.58,0.11,1.19,0.16,1.8,0.16&#xD;&#xA;		c5.59,0,10.12-4.53,10.12-10.13c0-5.59-4.53-10.13-10.12-10.13c-0.61,0-1.21,0.05-1.79,0.16c1.77-1.08,3.84-1.7,6.07-1.7&#xD;&#xA;		C220.72,18.12,225.95,23.36,225.95,29.8z"/>
	<polyline class="st11" points="201.32,102.32 199.71,105.1 201.17,106.55"/>
	<path class="st11" d="M198.51,100.94c0,0,0.66-0.99,1.98,0.37"/>
	<path class="st11" d="M203,101.9c0,0,0.66-0.99,1.98,0.37"/>
	<path class="st11" d="M199.2,107.63c0,0,1.42,2.51,4.8,0.73"/>
</g>
</svg>